<svg width="56" height="56" viewBox="0 0 56 56" version="1.1" xmlns="http://www.w3.org/2000/svg" xmlns:xlink="http://www.w3.org/1999/xlink">
<g id="Canvas" fill="none">
<g id="Group">
<g id="Rectangle (Stroke)">
<path fill-rule="evenodd" clip-rule="evenodd" d="M 23 3L 3 3L 3 23L 23 23L 23 3ZM 3 0C 1.34315 0 0 1.34315 0 3L 0 23C 0 24.6569 1.34315 26 3 26L 23 26C 24.6569 26 26 24.6569 26 23L 26 3C 26 1.34315 24.6569 0 23 0L 3 0Z" fill="#333333"/>
</g>
<g id="Rectangle 25">
<rect width="16" height="16" transform="translate(5 35)" fill="#F7D145"/>
</g>
<g id="Ellipse 12">
<circle cx="10" cy="10" r="10" transform="translate(33 3)" fill="#F7D145"/>
</g>
<g id="Rectangle (Stroke)_2">
<path fill-rule="evenodd" clip-rule="evenodd" d="M 23 3L 3 3L 3 23L 23 23L 23 3ZM 3 0C 1.34315 0 0 1.34315 0 3L 0 23C 0 24.6569 1.34315 26 3 26L 23 26C 24.6569 26 26 24.6569 26 23L 26 3C 26 1.34315 24.6569 0 23 0L 3 0Z" transform="translate(0 30)" fill="#333333"/>
</g>
<g id="Rectangle (Stroke)_3">
<path fill-rule="evenodd" clip-rule="evenodd" d="M 23 3L 3 3L 3 23L 23 23L 23 3ZM 3 0C 1.34315 0 0 1.34315 0 3L 0 23C 0 24.6569 1.34315 26 3 26L 23 26C 24.6569 26 26 24.6569 26 23L 26 3C 26 1.34315 24.6569 0 23 0L 3 0Z" transform="translate(30 30)" fill="#333333"/>
</g>
<g id="Ellipse (Stroke)">
<path fill-rule="evenodd" clip-rule="evenodd" d="M 13 23C 18.5228 23 23 18.5228 23 13C 23 7.47715 18.5228 3 13 3C 7.47715 3 3 7.47715 3 13C 3 18.5228 7.47715 23 13 23ZM 13 26C 20.1797 26 26 20.1797 26 13C 26 5.8203 20.1797 0 13 0C 5.8203 0 0 5.8203 0 13C 0 20.1797 5.8203 26 13 26Z" transform="translate(30 0)" fill="#333333"/>
</g>
<g id="1">
<path d="M 4.33398 9.9668L 2.3584 9.9668L 2.3584 2.35156L 0 3.08301L 0 1.47656L 4.12207 0L 4.33398 0L 4.33398 9.9668Z" transform="translate(10.1416 7.52148)" fill="#333333"/>
</g>
<g id="2">
<path d="M 7.02051 10.0898L 0.198242 10.0898L 0.198242 8.73633L 3.41797 5.30469C 3.86003 4.82161 4.18587 4.40006 4.39551 4.04004C 4.6097 3.68001 4.7168 3.33822 4.7168 3.01465C 4.7168 2.57259 4.60514 2.22624 4.38184 1.97559C 4.15853 1.72038 3.83952 1.59277 3.4248 1.59277C 2.97819 1.59277 2.625 1.74772 2.36523 2.05762C 2.11003 2.36296 1.98242 2.76628 1.98242 3.26758L 0 3.26758C 0 2.66146 0.143555 2.10775 0.430664 1.60645C 0.722331 1.10514 1.13249 0.713216 1.66113 0.430664C 2.18978 0.143555 2.78906 0 3.45898 0C 4.48438 0 5.27962 0.246094 5.84473 0.738281C 6.41439 1.23047 6.69922 1.92546 6.69922 2.82324C 6.69922 3.31543 6.57161 3.81673 6.31641 4.32715C 6.0612 4.83756 5.6237 5.43229 5.00391 6.11133L 2.74121 8.49707L 7.02051 8.49707L 7.02051 10.0898Z" transform="translate(9.47852 37.9102)" fill="#333333"/>
</g>
<g id="3">
<path d="M 2.24902 4.23828L 3.30176 4.23828C 3.80306 4.23828 4.17448 4.11296 4.41602 3.8623C 4.65755 3.61165 4.77832 3.27897 4.77832 2.86426C 4.77832 2.46322 4.65755 2.15104 4.41602 1.92773C 4.17904 1.70443 3.85091 1.59277 3.43164 1.59277C 3.05339 1.59277 2.73665 1.69759 2.48145 1.90723C 2.22624 2.1123 2.09863 2.38118 2.09863 2.71387L 0.123047 2.71387C 0.123047 2.19434 0.262044 1.72949 0.540039 1.31934C 0.822591 0.904622 1.21452 0.581055 1.71582 0.348633C 2.22168 0.116211 2.77767 0 3.38379 0C 4.43652 0 5.26139 0.25293 5.8584 0.758789C 6.4554 1.26009 6.75391 1.9528 6.75391 2.83691C 6.75391 3.29264 6.61491 3.71191 6.33691 4.09473C 6.05892 4.47754 5.69434 4.77148 5.24316 4.97656C 5.80371 5.17708 6.2207 5.47786 6.49414 5.87891C 6.77214 6.27995 6.91113 6.75391 6.91113 7.30078C 6.91113 8.1849 6.58756 8.89355 5.94043 9.42676C 5.29785 9.95996 4.44564 10.2266 3.38379 10.2266C 2.3903 10.2266 1.57682 9.96452 0.943359 9.44043C 0.314453 8.91634 0 8.22363 0 7.3623L 1.97559 7.3623C 1.97559 7.736 2.11458 8.04134 2.39258 8.27832C 2.67513 8.5153 3.02148 8.63379 3.43164 8.63379C 3.90104 8.63379 4.2679 8.51074 4.53223 8.26465C 4.80111 8.014 4.93555 7.68359 4.93555 7.27344C 4.93555 6.27995 4.38867 5.7832 3.29492 5.7832L 2.24902 5.7832L 2.24902 4.23828Z" transform="translate(39.4375 37.9102)" fill="#333333"/>
</g>
<g id="Rectangle 2">
<path d="M 0 1C 0 0.447715 0.447715 0 1 0C 1.55228 0 2 0.447715 2 1L 2 9C 2 9.55228 1.55228 10 1 10C 0.447715 10 0 9.55228 0 9L 0 1Z" transform="translate(42 8)" fill="#333333"/>
</g>
<g id="Rectangle 2_2">
<path d="M 0 1C 0 0.447715 0.447715 0 1 0C 1.55228 0 2 0.447715 2 1L 2 9C 2 9.55228 1.55228 10 1 10C 0.447715 10 0 9.55228 0 9L 0 1Z" transform="matrix(0 1 -1 0 48 12)" fill="#333333"/>
</g>
</g>
</g>
</svg>

