<svg width="56" height="56" viewBox="0 0 56 56" version="1.1" xmlns="http://www.w3.org/2000/svg" xmlns:xlink="http://www.w3.org/1999/xlink">
<g id="Canvas" fill="none">
<g id="Layer 1 26">
<g id="Vector">
<path d="M 7.42979 -1.14958e-06C 3.77942 -1.14958e-06 0.728221 2.59205 3.65533e-07 6.03266L 14.8412 6.03266C 14.1314 2.59205 11.0802 -1.14958e-06 7.42979 -1.14958e-06Z" transform="translate(20.5563 46.8682)" fill="#F7D145"/>
</g>
<g id="Vector_2">
<path d="M 2.2032 4.40931C 3.41082 4.40931 4.4064 3.41307 4.4064 2.20465C 4.4064 0.996238 3.41082 6.96713e-07 2.2032 6.96713e-07C 0.995582 6.96713e-07 -8.18098e-07 0.996238 -8.18098e-07 2.20465C -8.18098e-07 3.41307 0.995582 4.40931 2.2032 4.40931Z" transform="translate(25.7832 34.6552)" fill="white"/>
</g>
<g id="Group">
<g id="Vector_3">
<path d="M 10.6838 1.32375e-06C 4.7934 1.32375e-06 4.09049e-07 4.79656 4.09049e-07 10.6908C 4.09049e-07 11.5486 0.691289 12.2497 1.55782 12.2497L 19.8374 12.2497C 20.6946 12.2497 21.3952 11.5579 21.3952 10.6908C 21.3675 4.80583 16.5741 1.32375e-06 10.6838 1.32375e-06ZM 3.25397 9.15051C 3.97292 5.7099 7.03338 3.11785 10.6838 3.11785C 14.3341 3.11785 17.3853 5.7099 18.1135 9.15051L 3.25397 9.15051Z" transform="translate(17.3023 43.7504)" fill="#333333"/>
</g>
<g id="Vector_4">
<path d="M 5.31885 10.6447C 8.25027 10.6447 10.6377 8.26485 10.6377 5.32236C 10.6377 2.389 8.2594 4.87699e-07 5.31885 4.87699e-07C 2.3783 4.87699e-07 4.87377e-07 2.37987 4.87377e-07 5.32236C 4.87377e-07 8.26485 2.38743 10.6447 5.31885 10.6447ZM 5.31885 3.12698C 6.52647 3.12698 7.52205 4.12322 7.52205 5.33149C 7.52205 6.53991 6.52647 7.53615 5.31885 7.53615C 4.11123 7.53615 3.11565 6.53991 3.11565 5.33149C 3.11565 4.10481 4.11123 3.12698 5.31885 3.12698Z" transform="translate(22.6672 31.5284)" fill="#333333"/>
</g>
</g>
<g id="Vector_5">
<path d="M 2.20306 4.40916C 3.41068 4.40916 4.40626 3.41293 4.40626 2.20451C 4.40626 0.996097 3.41068 -6.53168e-08 2.20306 -6.53168e-08C 0.99544 -6.53168e-08 -2.17579e-07 0.996239 -2.17579e-07 2.20451C -2.17579e-07 3.41278 0.995583 4.40916 2.20306 4.40916Z" transform="translate(8.48083 3.11786)" fill="white"/>
</g>
<g id="Vector_6">
<path d="M 7.42979 5.39952e-07C 3.77942 5.39952e-07 0.72822 2.59205 -1.32288e-06 6.03265L 14.8412 6.03265C 14.1221 2.59205 11.0709 5.39952e-07 7.42979 5.39952e-07Z" transform="translate(37.8587 15.3214)" fill="#F7D145"/>
</g>
<g id="Group_2">
<g id="Vector_7">
<path d="M 7.42979 5.39952e-07C 3.77942 5.39952e-07 0.728221 2.59205 -4.35158e-08 6.03265L 14.8412 6.03265C 14.1406 2.59205 11.0802 5.39952e-07 7.42979 5.39952e-07Z" transform="translate(3.25427 15.3214)" fill="#F7D145"/>
</g>
<g id="Vector_8">
<path d="M 2.2032 4.40931C 3.41082 4.40931 4.4064 3.41307 4.4064 2.20465C 4.4064 0.996239 3.41082 1.30634e-08 2.2032 1.30634e-08C 0.995582 1.30634e-08 1.84507e-06 0.996239 1.84507e-06 2.20465C 1.84507e-06 3.41307 0.977188 4.40931 2.2032 4.40931Z" transform="translate(43.0856 3.11768)" fill="white"/>
</g>
</g>
<g id="Group_3">
<g id="Vector_9">
<path d="M 10.6838 9.5798e-08C 4.7934 9.5798e-08 0 4.79656 0 10.6908C 0 11.5486 0.691289 12.2497 1.55783 12.2497L 19.8374 12.2497C 20.6946 12.2497 21.3952 11.5579 21.3952 10.6908C 21.3861 4.79656 16.5834 9.5798e-08 10.6838 9.5798e-08ZM 3.27236 9.14123C 3.99131 5.70062 7.04251 3.10857 10.6838 3.10857C 14.3341 3.10857 17.3853 5.70062 18.1136 9.14123L 3.27236 9.14123Z" transform="translate(0 12.2128)" fill="#333333"/>
</g>
<g id="Vector_10">
<path d="M 5.30958 10.6356C 8.241 10.6356 10.6284 8.25571 10.6284 5.31323C 10.6284 2.37074 8.241 -9.69547e-10 5.30958 -9.69547e-10C 2.37816 -9.69547e-10 -1.17493e-07 2.37987 -1.17493e-07 5.32236C -1.17493e-07 8.26485 2.3783 10.6356 5.30958 10.6356ZM 5.30958 3.10857C 6.5172 3.10857 7.51278 4.10481 7.51278 5.31323C 7.51278 6.52164 6.5172 7.51788 5.30958 7.51788C 4.10196 7.51788 3.10638 6.53092 3.10638 5.31323C 3.10638 4.09554 4.10211 3.10857 5.30958 3.10857Z" transform="translate(5.37439 0)" fill="#333333"/>
</g>
<g id="Vector_11">
<path d="M 10.6838 9.5798e-08C 4.7934 9.5798e-08 -1.9147e-07 4.79656 -1.9147e-07 10.6908C -1.9147e-07 11.5486 0.69129 12.2497 1.55783 12.2497L 19.8374 12.2497C 20.6946 12.2497 21.3952 11.5579 21.3952 10.6908C 21.3675 4.79656 16.5741 9.5798e-08 10.6838 9.5798e-08ZM 3.25396 9.14123C 3.97292 5.70062 7.03339 3.10857 10.6838 3.10857C 14.3341 3.10857 17.3853 5.70062 18.1136 9.14123L 3.25396 9.14123Z" transform="translate(34.6048 12.2128)" fill="#333333"/>
</g>
<g id="Vector_12">
<path d="M 5.31885 10.6356C 8.25027 10.6356 10.6377 8.25571 10.6377 5.31323C 10.6377 2.37074 8.25027 -9.69547e-10 5.31885 -9.69547e-10C 2.38743 -9.69547e-10 9.74755e-07 2.37987 9.74755e-07 5.32236C 9.74755e-07 8.26485 2.38757 10.6356 5.31885 10.6356ZM 5.31885 3.10857C 6.52647 3.10857 7.52205 4.10481 7.52205 5.31323C 7.52205 6.52164 6.52647 7.51788 5.31885 7.51788C 4.11123 7.51788 3.11565 6.52164 3.11565 5.31323C 3.11565 4.10481 4.09284 3.10857 5.31885 3.10857Z" transform="translate(39.9697 0)" fill="#333333"/>
</g>
<g id="Vector_13">
<path d="M 16.8607 5.29471L 13.6897 0.673367C 13.2012 -0.0369276 12.2424 -0.212147 11.5511 0.276698L 11.5141 0.295104C 10.8043 0.783949 10.6292 1.74323 11.1177 2.43512L 12.058 3.80035C 8.32464 3.3115 4.48989 3.80962 0.959437 5.27616L 0.950168 5.28543C 0.166621 5.61746 -0.21125 6.51225 0.120563 7.30559L 0.138957 7.324C 0.47077 8.10806 1.36497 8.48618 2.15778 8.15415L 2.16705 8.14488C 5.21825 6.8811 8.54594 6.44762 11.7724 6.89037L 10.0762 8.06183C 9.37568 8.55068 9.19131 9.50996 9.67983 10.2018L 9.69823 10.2388C 10.1868 10.9398 11.1455 11.1243 11.8368 10.6355L 16.4551 7.4624C 17.1648 6.97342 17.3585 6.005 16.8607 5.29471Z" transform="translate(18.6752 2.67505)" fill="#333333"/>
</g>
<g id="Vector_14">
<path d="M 12.3887 12.2031C 9.77067 10.1922 7.75199 7.52638 6.50758 4.51012L 8.33277 5.37723C 9.10705 5.75549 10.0382 5.42332 10.4068 4.63926C 10.7848 3.86447 10.4528 2.93272 9.66929 2.56388L 4.6362 0.156322C 3.86192 -0.221941 2.93079 0.110233 2.56219 0.894297L 0.156219 5.93999C -0.221794 6.71478 0.110161 7.64652 0.893708 8.01537C 1.66799 8.39363 2.59912 8.06145 2.96772 7.27739L 3.68667 5.76463C 5.14311 9.2606 7.46609 12.3322 10.4989 14.666C 11.1811 15.1825 12.149 15.0627 12.6836 14.3801C 13.1999 13.6973 13.0708 12.7287 12.3887 12.2031Z" transform="translate(4.3053 30.5789)" fill="#333333"/>
</g>
<g id="Vector_15">
<path d="M 8.73527 0.013168C 7.88727 -0.0975569 7.10372 0.502013 6.99307 1.35985C 6.55987 4.63437 5.25999 7.71526 3.26897 10.298L 3.11226 8.27787C 3.04767 7.42004 2.30105 6.77438 1.43452 6.84815C 0.577252 6.91279 -0.0679788 7.65989 0.00574162 8.527L 0.448206 14.0984C 0.512801 14.9562 1.25941 15.6018 2.12595 15.5281L 7.69362 15.0853C 8.55089 15.0207 9.19613 14.2736 9.12241 13.4065C 9.05781 12.5486 8.31119 11.903 7.44466 11.9767L 5.80384 12.1059C 8.09916 9.10802 9.58326 5.54742 10.0811 1.75637C 10.1824 0.88955 9.59253 0.123893 8.73527 0.013168Z" transform="translate(39.4293 29.0523)" fill="#333333"/>
</g>
</g>
</g>
</g>
</svg>

