<svg width="58" height="58" viewBox="0 0 58 58" version="1.1" xmlns="http://www.w3.org/2000/svg" xmlns:xlink="http://www.w3.org/1999/xlink">
<g id="Canvas" fill="none">
<g id="Group">
<g id="Group_2">
<g id="Rectangle 34">
<rect width="35" height="15" transform="translate(11.4818 16)" fill="#F7D145"/>
</g>
<g id="Rectangle 34_2">
<path d="M 0 4C 0 1.79086 1.79086 0 4 0L 15.5432 0C 17.4043 0 19.0196 1.2837 19.4399 3.09683L 19.6562 4.03044C 20.0765 5.84357 21.6918 7.12727 23.5529 7.12727L 30.1602 7.12727C 32.1335 7.12727 33.812 5.68824 34.1133 3.7381L 34.1672 3.38917C 34.4686 1.43903 36.147 0 38.1203 0L 49.9636 0C 52.1728 0 53.9636 1.79086 53.9636 4L 53.9636 15.3455C 53.9636 17.5546 52.1728 19.3455 49.9636 19.3455L 4 19.3455C 1.79086 19.3455 0 17.5546 0 15.3455L 0 4Z" transform="translate(1.50001 35.6364)" fill="#F7D145"/>
</g>
<g id="Rectangle 33">
<path d="M 0 1.52727C 0 0.683783 0.683783 0 1.52727 0L 6.61818 0C 7.46167 0 8.14545 0.683784 8.14545 1.52727C 8.14545 2.37076 7.46167 3.05455 6.61818 3.05455L 1.52727 3.05455C 0.683783 3.05455 0 2.37076 0 1.52727Z" transform="translate(1.50001 46.8364)" fill="#333333"/>
</g>
<g id="Rectangle 33_2">
<path d="M 0 1.52727C 0 0.683783 0.683783 0 1.52727 0L 9.67273 0C 10.5162 0 11.2 0.683784 11.2 1.52727C 11.2 2.37076 10.5162 3.05455 9.67273 3.05455L 1.52727 3.05455C 0.683783 3.05455 0 2.37076 0 1.52727Z" transform="translate(0.481827 41.7455)" fill="#333333"/>
</g>
</g>
<g id="Group_3">
<g id="Union">
<path fill-rule="evenodd" clip-rule="evenodd" d="M 7.5553 0C 6.41016 0 5.48181 0.671574 5.48181 1.5C 5.48181 2.32843 6.41016 3 7.5553 3L 50.4083 3C 51.5535 3 52.4818 2.32843 52.4818 1.5C 52.4818 0.671574 51.5535 0 50.4083 0L 7.5553 0ZM 5.48181 6.5C 5.48181 5.67157 6.27087 5 7.24426 5L 50.7194 5C 51.6927 5 52.4818 5.67157 52.4818 6.5C 52.4818 7.32843 51.6927 8 50.7194 8L 7.24426 8C 6.27087 8 5.48181 7.32843 5.48181 6.5ZM 5.48779 16.0616C 5.48779 13.024 7.9502 10.5616 10.9878 10.5616L 46.9939 10.5616C 50.0315 10.5616 52.4939 13.024 52.4939 16.0616L 52.4939 34.1364C 55.5259 34.1429 57.9818 36.6028 57.9818 39.6364L 57.9818 52C 57.9818 55.0376 55.5194 57.5 52.4818 57.5L 5.5 57.5C 2.4624 57.5 0 55.0376 0 52L 0 39.6364C 0 36.6029 2.45581 34.143 5.48779 34.1364L 5.48779 16.0616ZM 8.48779 34.1364L 20.8455 34.1364C 21.6738 34.1364 22.3455 34.8079 22.3455 35.6364L 22.3455 39.7818C 22.3455 41.1625 23.4647 42.2818 24.8455 42.2818L 32.1182 42.2818C 33.4989 42.2818 34.6182 41.1625 34.6182 39.7818L 34.6182 35.6364C 34.6182 34.8079 35.2898 34.1364 36.1182 34.1364L 49.4939 34.1364L 49.4939 16.0616C 49.4939 14.6809 48.3746 13.5616 46.9939 13.5616L 10.9878 13.5616C 9.60706 13.5616 8.48779 14.6809 8.48779 16.0616L 8.48779 34.1364ZM 37.6182 37.1364L 37.6182 39.7818C 37.6182 42.8194 35.1558 45.2818 32.1182 45.2818L 24.8455 45.2818C 21.8079 45.2818 19.3455 42.8194 19.3455 39.7818L 19.3455 37.1364L 5.5 37.1364C 4.11926 37.1364 3 38.2557 3 39.6364L 3 52C 3 53.3807 4.11926 54.5 5.5 54.5L 52.4818 54.5C 53.8625 54.5 54.9818 53.3807 54.9818 52L 54.9818 39.6364C 54.9818 38.2557 53.8625 37.1364 52.4818 37.1364L 37.6182 37.1364Z" fill="#333333"/>
</g>
</g>
</g>
</g>
</svg>

