<svg width="56" height="58" viewBox="0 0 56 58" fill="none" xmlns="http://www.w3.org/2000/svg">
<path d="M4.5 1.5L9.5 0L10 19.5L4 17.5L1 14L0 9L1 5L4.5 1.5Z" transform="translate(1.5 25)" fill="#F7D145"/>
<path d="M42.5 19V0H45L50 3L53 8.5L52 14L47.5 18L42.5 19Z" transform="translate(1.5 25)" fill="#F7D145"/>
<path d="M1 24.5L5.5 22L5 19L7 14L10 9.5L15 6.5L22 5L28.5 7L34 10.5L36.5 17.5L37 23L42 23.5V17.5L40.5 11.5L35.5 5.5L29 2L22 0L14 1L7 5.5L2 13L0 19L1 24.5Z" transform="translate(6.5 1.5)" fill="white"/>
<circle cx="2.56881" cy="2.56881" r="2.56881" transform="translate(26.2018 50.8624)" fill="#F7D145" stroke="#333333" stroke-width="3"/>
<path fill-rule="evenodd" clip-rule="evenodd" d="M5.1377 22.6055C5.1377 10.1208 15.2585 0 27.7432 0C40.2278 0 50.3486 10.1208 50.3486 22.6055V24.6312C53.7271 26.5856 56 30.2383 56 34.4219C56 40.4919 51.2151 45.4445 45.2112 45.7131V45.7247L44.6973 45.7246L42.1287 45.7247V22.6056C42.1287 14.6608 35.688 8.22021 27.7432 8.22021C19.7986 8.22021 13.3579 14.6608 13.3579 22.6056V50.4438C13.3579 51.5262 14.2354 52.4038 15.3179 52.4038H26.2019V55.4863H15.3179C12.533 55.4863 10.2754 53.2288 10.2754 50.4438V46.1923C4.5144 45.6732 0 40.8315 0 34.9355C0 30.9677 2.04468 27.4773 5.1377 25.4606V22.6055ZM45.2112 42.6263C49.5115 42.3611 52.9175 38.7892 52.9175 34.4219C52.9175 30.0546 49.5115 26.4827 45.2112 26.2174V42.6263ZM45.2112 23.1306C45.9148 23.1621 46.6018 23.2579 47.2661 23.4124V22.6055C47.2661 11.8232 38.5254 3.08252 27.7432 3.08252C16.9609 3.08252 8.22021 11.8232 8.22021 22.6055V24.0582C8.88257 23.8708 9.56958 23.7424 10.2754 23.6788V22.6056C10.2754 12.9584 18.0959 5.1377 27.7432 5.1377C37.3906 5.1377 45.2112 12.9584 45.2112 22.6056V23.1306ZM3.08252 34.9355C3.08252 30.7435 6.22046 27.2845 10.2754 26.7789V43.0922C6.22046 42.5865 3.08252 39.1276 3.08252 34.9355Z" fill="#333333"/>
<rect width="7" height="3" rx="1.5" transform="translate(1 36)" fill="#333333"/>
<rect width="5.25" height="3" rx="1.5" transform="translate(1 31)" fill="#333333"/>
<rect width="7" height="3" rx="1.5" transform="translate(55 36) scale(-1 1)" fill="#333333"/>
<rect width="5.25" height="3" rx="1.5" transform="translate(55 31) scale(-1 1)" fill="#333333"/>
</svg>
