<svg width="27" height="27" viewBox="0 0 27 27" version="1.1" xmlns="http://www.w3.org/2000/svg" xmlns:xlink="http://www.w3.org/1999/xlink">
<title>Page 1</title>
<desc>Created using Figma</desc>
<g id="Canvas" transform="translate(3693 4756)">
<g id="Page 1">
<mask id="mask0_outline" mask-type="alpha">
<g id="Clip 2">
<use xlink:href="#path0_fill" transform="translate(-3693 -4756)" fill="#FFFFFF"/>
</g>
</mask>
<g id="Clip 2" mask="url(#mask0_outline)">
<use xlink:href="#path1_fill" transform="translate(-3693 -4756)" fill="url(#paint1_radial)"/>
</g>
<g id="Fill 1" mask="url(#mask0_outline)">
<use xlink:href="#path2_fill" transform="translate(-3694.47 -4757.08)" fill="url(#paint2_linear)"/>
</g>
</g>
</g>
<defs>
<radialGradient id="paint1_radial" cx="0.5" cy="0.5" r="0.5" gradientUnits="userSpaceOnUse" gradientTransform="matrix(-7.91336 32.2722 -32.2722 -7.92946 37.5495 -1.30747)">
<stop offset="0" stop-color="#FBE993"/>
<stop offset="0.426228" stop-color="#FDE622"/>
<stop offset="1" stop-color="#F5B732"/>
</radialGradient>
<linearGradient id="paint2_linear" x1="0" y1="0" x2="1" y2="0" gradientUnits="userSpaceOnUse" gradientTransform="matrix(27.1201 2.08826e-07 7.79848e-08 27.93 1.43443 0.168386)">
<stop offset="0" stop-color="#2B2B2B"/>
<stop offset="0.152836" stop-color="#131313"/>
<stop offset="0.745954" stop-color="#131313"/>
<stop offset="1" stop-color="#1B1B1B"/>
</linearGradient>
<path id="path0_fill" fill-rule="evenodd" d="M 0 13.5C 0 20.9559 6.04412 27 13.5 27C 20.9559 27 27 20.9559 27 13.5C 27 6.04414 20.9559 0 13.5 0C 6.04412 0 0 6.04414 0 13.5Z"/>
<path id="path1_fill" fill-rule="evenodd" d="M 0 13.5C 0 20.9559 6.04412 27 13.5 27C 20.9559 27 27 20.9559 27 13.5C 27 6.04414 20.9559 0 13.5 0C 6.04412 0 0 6.04414 0 13.5Z"/>
<path id="path2_fill" fill-rule="evenodd" d="M 24.8401 0L 4.86011 0L 4.86011 5.40002L 24.8401 5.40002L 24.8401 0ZM 4.86011 29.1603L 24.8401 29.1603L 24.8401 23.7603L 4.86011 23.7603L 4.86011 29.1603ZM 0 18.0903L 29.97 18.0903L 29.97 11.0703L 0 11.0703L 0 18.0903Z"/>
</defs>
</svg>
